<svg width="19" height="23" viewBox="0 0 19 23" fill="none" xmlns="http://www.w3.org/2000/svg">
<path fill-rule="evenodd" clip-rule="evenodd" d="M17.0571 8.03804H1.8V18.9999C1.8 20.215 2.78498 21.1999 4 21.1999H14.8571C16.0722 21.1999 17.0571 20.215 17.0571 18.9999V8.03804ZM0 6.23804V18.9999C0 21.2091 1.79087 22.9999 4 22.9999H14.8571C17.0663 22.9999 18.8571 21.2091 18.8571 18.9999V6.23804H0Z" fill="white"/>
<path fill-rule="evenodd" clip-rule="evenodd" d="M12.7156 11.4761V4.99988C12.7156 3.2878 11.3277 1.89988 9.61562 1.89988H9.23467C7.52259 1.89988 6.13467 3.2878 6.13467 4.99988V11.4761H4.33467V4.99988C4.33467 2.29369 6.52848 0.099884 9.23467 0.099884H9.61562C12.3218 0.099884 14.5156 2.29369 14.5156 4.99988V11.4761H12.7156Z" fill="white"/>
</svg>
