<svg width="17" height="18" viewBox="0 0 17 18" fill="none" xmlns="http://www.w3.org/2000/svg">
<path d="M0 8.82349C0 8.2712 0.447715 7.82349 1 7.82349C1.55228 7.82349 2 8.2712 2 8.82349V16.8235C2 17.3758 1.55228 17.8235 1 17.8235C0.447715 17.8235 0 17.3758 0 16.8235V8.82349Z" fill="black"/>
<path d="M5 1.82349C5 1.2712 5.44772 0.823486 6 0.823486C6.55228 0.823486 7 1.2712 7 1.82349V16.8235C7 17.3758 6.55228 17.8235 6 17.8235C5.44772 17.8235 5 17.3758 5 16.8235V1.82349Z" fill="black"/>
<path d="M10 8.82349C10 8.2712 10.4477 7.82349 11 7.82349C11.5523 7.82349 12 8.2712 12 8.82349V16.8235C12 17.3758 11.5523 17.8235 11 17.8235C10.4477 17.8235 10 17.3758 10 16.8235V8.82349Z" fill="black"/>
<path d="M15 5.82349C15 5.2712 15.4477 4.82349 16 4.82349C16.5523 4.82349 17 5.2712 17 5.82349V16.8235C17 17.3758 16.5523 17.8235 16 17.8235C15.4477 17.8235 15 17.3758 15 16.8235V5.82349Z" fill="black"/>
</svg>
