<svg width="64" height="68" viewBox="0 0 64 68" fill="none" xmlns="http://www.w3.org/2000/svg">
<g filter="url(#filter0_d_1072_16834)">
<path fill-rule="evenodd" clip-rule="evenodd" d="M32 44.4941C36.9706 44.4941 41 40.4647 41 35.4941C41 30.5236 36.9706 26.4941 32 26.4941C27.0294 26.4941 23 30.5236 23 35.4941C23 40.4647 27.0294 44.4941 32 44.4941ZM32 45.4941C37.5228 45.4941 42 41.017 42 35.4941C42 29.9713 37.5228 25.4941 32 25.4941C26.4772 25.4941 22 29.9713 22 35.4941C22 41.017 26.4772 45.4941 32 45.4941Z" fill="#F53B49"/>
</g>
<path fill-rule="evenodd" clip-rule="evenodd" d="M35.356 36.1841C35.5499 36.3807 35.5477 36.6973 35.3511 36.8912L32.3511 39.8501C32.1564 40.0421 31.8436 40.0421 31.6489 39.8501L28.6489 36.8912C28.4523 36.6973 28.4501 36.3807 28.644 36.1841C28.8379 35.9875 29.1545 35.9853 29.3511 36.1793L31.5 38.2987V31.4941C31.5 31.218 31.7239 30.9941 32 30.9941C32.2761 30.9941 32.5 31.218 32.5 31.4941V38.2987L34.6489 36.1793C34.8455 35.9853 35.1621 35.9875 35.356 36.1841Z" fill="#F53B49"/>
<defs>
<filter id="filter0_d_1072_16834" x="-3" y="0.494141" width="70" height="70" filterUnits="userSpaceOnUse" color-interpolation-filters="sRGB">
<feFlood flood-opacity="0" result="BackgroundImageFix"/>
<feColorMatrix in="SourceAlpha" type="matrix" values="0 0 0 0 0 0 0 0 0 0 0 0 0 0 0 0 0 0 127 0" result="hardAlpha"/>
<feOffset/>
<feGaussianBlur stdDeviation="12.5"/>
<feColorMatrix type="matrix" values="0 0 0 0 0 0 0 0 0 0 0 0 0 0 0 0 0 0 0.1 0"/>
<feBlend mode="normal" in2="BackgroundImageFix" result="effect1_dropShadow_1072_16834"/>
<feBlend mode="normal" in="SourceGraphic" in2="effect1_dropShadow_1072_16834" result="shape"/>
</filter>
</defs>
</svg>
